<?xml version="1.0" encoding="UTF-8" standalone="no"?>
<!-- Created with Inkscape (http://www.inkscape.org/) -->

<svg
   version="1.1"
   id="svg1"
   width="256"
   height="256"
   viewBox="0 0 256 256"
   sodipodi:docname="logo.svg"
   inkscape:version="1.4.4 (dcaf3e7, 2026-05-05)"
   inkscape:export-filename="../../Pictures/departures-logo.png"
   inkscape:export-xdpi="96"
   inkscape:export-ydpi="96"
   xmlns:inkscape="http://www.inkscape.org/namespaces/inkscape"
   xmlns:sodipodi="http://sodipodi.sourceforge.net/DTD/sodipodi-0.dtd"
   xmlns="http://www.w3.org/2000/svg"
   xmlns:svg="http://www.w3.org/2000/svg">
  <defs
     id="defs1">
    <inkscape:path-effect
       effect="fillet_chamfer"
       id="path-effect8"
       is_visible="true"
       lpeversion="1"
       nodesatellites_param="F,0,0,1,0,10,0,1 @ F,0,0,1,0,10,0,1 @ F,0,0,1,0,0,0,1 @ F,0,0,1,0,3.5176036,0,1 @ F,0,0,1,0,3.7640565,0,1 @ F,0,0,1,0,0,0,1 @ F,0,0,1,0,2.4175391,0,1 @ F,0,0,1,0,2.6740879,0,1 @ F,0,0,1,0,0,0,1 @ F,0,0,1,0,7,0,1 @ F,0,0,1,0,7,0,1 @ F,0,0,1,0,0,0,1 @ F,0,0,1,0,0,0,1 @ F,0,0,1,0,0,0,1 @ F,0,0,1,0,0,0,1 @ F,0,0,1,0,1.8334389,0,1 @ F,0,0,1,0,4.3789529,0,1 @ F,0,0,1,0,0,0,1 @ F,0,0,1,0,2.6147874,0,1 @ F,0,0,1,0,4.3789529,0,1 @ F,0,0,1,0,0,0,1"
       radius="0"
       unit="px"
       method="auto"
       mode="F"
       chamfer_steps="1"
       flexible="false"
       use_knot_distance="true"
       apply_no_radius="true"
       apply_with_radius="true"
       only_selected="false"
       hide_knots="false" />
    <inkscape:path-effect
       effect="fillet_chamfer"
       id="path-effect7"
       is_visible="true"
       lpeversion="1"
       nodesatellites_param="F,0,0,1,0,0,0,1 @ F,0,0,1,0,0,0,1 @ F,0,0,1,0,0,0,1 @ F,0,0,1,0,3.6333002,0,1 @ F,0,0,1,0,3.9149116,0,1 @ F,0,0,1,0,0,0,1 @ F,0,0,1,0,4.8260861,0,1 @ F,0,0,1,0,0,0,1 @ F,0,0,1,0,0,0,1 @ F,0,0,1,0,0,0,1 @ F,0,0,1,0,0,0,1 @ F,0,0,1,0,0,0,1 @ F,0,0,1,0,0,0,1 @ F,0,0,1,0,0,0,1 @ F,0,0,1,0,0,0,1 @ F,0,0,1,0,0,0,1 @ F,0,0,1,0,4.0265552,0,1 @ F,0,0,1,0,0,0,1 @ F,0,0,1,0,3.8087951,0,1 @ F,0,0,1,0,1.7932651,0,1 @ F,0,0,1,0,0,0,1"
       radius="0"
       unit="px"
       method="auto"
       mode="F"
       chamfer_steps="1"
       flexible="false"
       use_knot_distance="true"
       apply_no_radius="true"
       apply_with_radius="true"
       only_selected="false"
       hide_knots="false" />
    <inkscape:path-effect
       effect="fillet_chamfer"
       id="path-effect6"
       is_visible="true"
       lpeversion="1"
       nodesatellites_param="F,0,0,1,0,0,0,1 @ F,0,0,1,0,0,0,1 @ F,0,0,1,0,0,0,1 @ F,0,0,1,0,0,0,1 @ F,0,0,1,0,0,0,1 @ F,0,0,1,0,0,0,1 @ F,0,0,1,0,0,0,1 @ F,0,0,1,0,0,0,1 @ F,0,0,1,0,0,0,1 @ F,0,0,1,0,0,0,1 @ F,0,0,1,0,0,0,1 @ F,0,0,1,0,0,0,1 @ F,0,0,1,0,0,0,1 @ F,0,1,1,0,0,0,1 @ F,0,0,1,0,0,0,1 @ F,0,1,1,0,0,0,1 @ F,0,0,1,0,0,0,1"
       radius="0"
       unit="px"
       method="auto"
       mode="F"
       chamfer_steps="1"
       flexible="false"
       use_knot_distance="true"
       apply_no_radius="true"
       apply_with_radius="true"
       only_selected="false"
       hide_knots="false" />
    <inkscape:path-effect
       effect="fillet_chamfer"
       id="path-effect5"
       is_visible="true"
       lpeversion="1"
       nodesatellites_param="F,0,0,1,0,0,0,1 @ F,0,0,1,0,0,0,1 @ F,0,0,1,0,0,0,1 @ F,0,0,1,0,0,0,1 @ F,0,0,1,0,0,0,1 @ F,0,0,1,0,0,0,1 @ F,0,0,1,0,0,0,1 @ F,0,0,1,0,0,0,1 @ F,0,0,1,0,0,0,1 @ F,0,0,1,0,0,0,1 @ F,0,0,1,0,0,0,1 @ F,0,0,1,0,0,0,1 @ F,0,0,1,0,0,0,1 @ F,0,0,1,0,1.8689102,0,1 @ F,0,0,1,0,0,0,1 @ F,0,0,1,0,0,0,1 @ F,0,0,1,0,0,0,1"
       radius="0"
       unit="px"
       method="auto"
       mode="F"
       chamfer_steps="1"
       flexible="false"
       use_knot_distance="true"
       apply_no_radius="true"
       apply_with_radius="true"
       only_selected="false"
       hide_knots="false" />
    <inkscape:path-effect
       effect="fillet_chamfer"
       id="path-effect3"
       is_visible="true"
       lpeversion="1"
       nodesatellites_param="F,0,0,1,0,0,0,1 @ F,0,0,1,0,0,0,1 @ F,0,0,1,0,5,0,1 @ F,0,0,1,0,5,0,1 @ F,0,0,1,0,0,0,1 @ F,0,0,1,0,10,0,1 @ F,0,0,1,0,0,0,1 @ F,0,0,1,0,0,0,1 @ F,0,0,1,0,15,0,1 @ F,0,0,1,0,0,0,1 @ F,0,0,1,0,0,0,1 @ F,0,0,1,0,0,0,1 @ F,0,0,1,0,15,0,1 @ F,0,0,1,0,0,0,1 @ F,0,0,1,0,0,0,1 @ F,0,0,1,0,10,0,1 @ F,0,0,1,0,0,0,1 @ F,0,0,1,0,3.3338974,0,1 @ F,0,0,1,0,5,0,1"
       radius="0"
       unit="px"
       method="auto"
       mode="F"
       chamfer_steps="1"
       flexible="false"
       use_knot_distance="true"
       apply_no_radius="true"
       apply_with_radius="true"
       only_selected="false"
       hide_knots="false" />
    <inkscape:path-effect
       effect="fillet_chamfer"
       id="path-effect2"
       is_visible="true"
       lpeversion="1"
       nodesatellites_param="F,0,0,1,0,0,0,1 @ F,0,0,1,0,0,0,1 @ F,0,0,1,0,10,0,1 @ F,0,0,1,0,0,0,1 @ F,0,0,1,0,0,0,1 @ F,0,0,1,0,40,0,1 @ F,0,0,1,0,0,0,1 @ F,0,0,1,0,40,0,1 @ F,0,0,1,0,0,0,1 @ F,0,0,1,0,40,0,1 @ F,0,0,1,0,0,0,1 @ F,0,0,1,0,40,0,1 @ F,0,0,1,0,0,0,1 @ F,0,0,1,0,0,0,1 @ F,0,0,1,0,10,0,1"
       radius="0"
       unit="px"
       method="auto"
       mode="F"
       chamfer_steps="1"
       flexible="false"
       use_knot_distance="true"
       apply_no_radius="true"
       apply_with_radius="true"
       only_selected="false"
       hide_knots="false" />
    <inkscape:path-effect
       effect="fillet_chamfer"
       id="path-effect1"
       is_visible="true"
       lpeversion="1"
       nodesatellites_param="F,0,0,1,0,10,0,1 @ F,0,0,1,0,10,0,1 @ F,0,0,1,0,0,0,1 @ F,0,0,1,0,0,0,1 @ F,0,0,1,0,0,0,1 @ F,0,0,1,0,0,0,1 @ F,0,0,1,0,0,0,1 @ F,0,0,1,0,6,0,1 @ F,0,1,1,0,7.0512698,0,1 @ F,0,0,1,0,0,0,1 @ F,0,0,1,0,0,0,1 @ F,0,0,1,0,0,0,1 @ F,0,0,1,0,0,0,1 @ F,0,0,1,0,0,0,1 @ F,0,0,1,0,0,0,1 @ F,0,0,1,0,0,0,1 @ F,0,0,1,0,0,0,1"
       radius="0"
       unit="px"
       method="auto"
       mode="F"
       chamfer_steps="1"
       flexible="false"
       use_knot_distance="true"
       apply_no_radius="true"
       apply_with_radius="true"
       only_selected="false"
       hide_knots="false" />
  </defs>
  <sodipodi:namedview
     id="namedview1"
     pagecolor="#ffffff"
     bordercolor="#000000"
     borderopacity="0.25"
     inkscape:showpageshadow="2"
     inkscape:pageopacity="0.0"
     inkscape:pagecheckerboard="0"
     inkscape:deskcolor="#d1d1d1"
     inkscape:zoom="4.6873239"
     inkscape:cx="-13.867188"
     inkscape:cy="107.84405"
     inkscape:window-width="3840"
     inkscape:window-height="2102"
     inkscape:window-x="1710"
     inkscape:window-y="30"
     inkscape:window-maximized="1"
     inkscape:current-layer="g1"
     inkscape:export-bgcolor="#ffffff00"
     showgrid="false" />
  <g
     inkscape:groupmode="layer"
     inkscape:label="Logo"
     id="g1"
     style="display:inline"
     transform="matrix(0.10868914,0,0,0.10868914,21.362637,112.60828)">
    <g
       id="g2"
       transform="matrix(3.498193,0,0,3.8579068,-259.89227,-1300.9701)">
      <path
         style="fill:#13b1ff;fill-opacity:1"
         d="m 95.383992,621.22696 518.854468,0.29051 a 9.9707191,9.9707191 134.94807 0 0 9.97628,-9.99437 l -0.5797,-244.34175 h 48.67827 a 16.124221,16.124221 167.69337 0 0 6.71559,-1.46505 l 3.09901,-1.4197 a 5.8646134,5.8646134 122.69337 0 0 3.42205,-5.33176 v -0.68838 -4.59501 a 11.511117,11.511117 78.139246 0 0 -0.97256,-4.63083 l -1.03311,-2.35109 a 9.2036225,9.2036225 50.077411 0 0 -3.2959,-3.9387 L 586.2984,279.68538 v -87.05816 a 6.9569615,6.9569615 44.82332 0 0 -6.99987,-6.95683 l -71.61051,0.44165 a 7.0433047,7.0433047 134.82332 0 0 -6.99987,7.04317 l 0,28.82809 -135.61875,-92.54961 c 0,0 -6.60788,-3.06871 -10.14232,-3.09345 -3.70486,-0.0259 -10.67568,3.09345 -10.67568,3.09345 L 29.274347,343.22171 a 10.463969,10.463969 135.89546 0 0 -2.593568,2.51375 l -0.141874,0.19558 a 13.494141,13.494141 107.97865 0 0 -2.571243,7.92351 v 3.8854 l 0,1.67086 a 4.412482,4.412482 59.349493 0 0 2.293573,3.87043 l 2.18074,1.19387 a 17.531788,17.531788 14.675028 0 0 8.219689,2.15257 l 48.72233,0.55367 v 244.04001 a 10.005601,10.005601 45.01604 0 0 9.999998,10.0056 z"
         id="path1"
         sodipodi:nodetypes="cccccccccccccacccccccc"
         inkscape:label="Talo"
         inkscape:path-effect="#path-effect8"
         inkscape:original-d="m 85.383994,621.22136 538.854466,0.30171 -0.60342,-254.34172 h 52.19587 l 9.71905,-4.45245 v -4.45244 -7.01255 l -3.08143,-7.01254 -96.17013,-64.56599 v -94.05816 l -85.61025,0.52799 V 221.9833 L 365.0694,129.43369 c 0,0 -6.60788,-3.06871 -10.14232,-3.09345 -3.70486,-0.0259 -10.67568,3.09345 -10.67568,3.09345 L 27.757341,344.25137 23.967662,349.4756 v 8.26435 4.28565 l 8.315332,4.55232 53.101,0.60343 z" />
      <path
         style="fill:#ffffff;fill-opacity:1"
         d="m 293.11148,604.929 h 124.15376 v -16.09793 a 10,10 45 0 0 -10,-10 h -34.80397 l 0.15086,-69.69507 h 64.8443 a 40,40 135 0 0 40,-40 l 0,-152.64197 v -5.7091 a 41.926344,41.926344 46.346954 0 0 -39.9558,-41.88001 L 354.50951,265 271.53113,268.29344 A 41.619106,41.619106 133.86355 0 0 231.5626,309.8798 v 6.61423 152.64197 a 40,40 45 0 0 40,40 h 65.74944 l -0.45257,69.69507 h -33.74799 a 10,10 135 0 0 -10,10 z"
         id="path2"
         sodipodi:nodetypes="cccccccccccccccc"
         inkscape:path-effect="#path-effect2"
         inkscape:original-d="m 293.11148,604.929 h 124.15376 v -26.09793 h -44.80397 l 0.15086,-69.69507 h 104.8443 V 316.49403 270.78493 L 354.50951,265 231.5626,269.8798 V 316.49403 509.136 h 105.74944 l -0.45257,69.69507 h -43.74799 z"
         inkscape:label="Pysäkki" />
      <path
         style="fill:#ff7b14;fill-opacity:1"
         d="m 318.00258,467.80171 h 73.76815 l 0.10135,10.23661 a 5.0497483,5.0497483 44.716376 0 0 5.0495,4.99975 h 22.13214 a 5,5 135 0 0 5,-5 v -10.23636 h 1.7667 a 10.082989,10.082989 135.23676 0 0 10.08264,-9.99966 l 0.0682,-8.25381 -2.11197,-123.55034 -0.38051,-6.89677 a 17.289394,17.289394 45.89765 0 0 -15.77032,-16.27237 l -7.68428,-0.66597 -52.49758,-2.56454 -59.43692,2.56454 -4.5359,0.45711 a 18.670068,18.670068 135.46616 0 0 -16.67106,16.40197 l -0.81788,6.97603 -2.11197,123.55034 -0.13644,8.25484 a 9.8360768,9.8360768 45.473475 0 0 9.83473,9.99863 h 2.37011 l -0.23571,11.90312 a 3.2685332,3.2685332 45.567211 0 0 3.2679,3.33324 h 23.9491 a 5,5 135 0 0 5,-5 z"
         id="path3"
         sodipodi:nodetypes="cccccccccccccccccccc"
         inkscape:path-effect="#path-effect3"
         inkscape:original-d="m 318.00258,467.80171 h 73.76815 l 0.15085,15.23636 h 32.13214 v -15.23636 h 11.7667 l 0.15086,-18.25347 -2.11197,-123.55034 -1.20685,-21.87399 -22.62826,-1.96112 -52.49758,-2.56454 -59.43692,2.56454 -19.46031,1.96112 -2.56453,21.87399 -2.11197,123.55034 -0.30171,18.25347 h 12.37011 l -0.30171,15.23636 h 32.283 z"
         inkscape:label="Bussi" />
      <circle
         style="fill:#ffffff;fill-opacity:1"
         id="path4"
         cx="302.91705"
         cy="435.42731"
         r="11.615844"
         inkscape:label="Valo-oikea" />
      <circle
         style="fill:#ffffff;fill-opacity:1"
         id="path4-4"
         cx="407.46014"
         cy="435.42731"
         r="11.615844"
         inkscape:label="Valo-vasen" />
      <rect
         style="fill:#f9fffd;fill-opacity:1"
         id="rect4"
         width="114.49905"
         height="50.083904"
         x="297.63715"
         y="352.69925"
         ry="5"
         rx="5"
         inkscape:label="Tuulilasi" />
      <rect
         style="fill:#ffffff;fill-opacity:1"
         id="rect5"
         width="102.12891"
         height="22.477409"
         x="304.27478"
         y="318.90771"
         rx="7"
         ry="7"
         inkscape:label="Linja" />
    </g>
  </g>
</svg>
